# xmcd
#
# Track frame offsets:
#	150
#	11572
#	24278
#	37228
#	49926
#	62533
#	76546
#	87623
#	99069
#	111240
#	125489
#	137554
#	150968
#	163896
#	179505
#
# Disc length: 2593 seconds
#
# Revision: 2
# Processed by: cddbd v1.5.2PL0 Copyright (c) Steve Scherf et al.
# Submitted via: EZCDAudioConverter 1.3.4.1
#
DISCID=b60a1f0f
DTITLE=Stereophonic Space Sound Unlimited - Live Fast Die Young - Jo Siffert
DYEAR=2005
DGENRE=
TTITLE0=Jo's Theme
TTITLE1=Requiem Pour Un Grand Pilote
TTITLE2=Bossa Jo
TTITLE3=Highlife At Monza
TTITLE4=A Racer's Heart
TTITLE5=The Last Of The Late Brakers
TTITLE6=On The Road To Sicily
TTITLE7=Top Speed
TTITLE8=70/71
TTITLE9=Grid Girls 68
TTITLE10=Fear Theme
TTITLE11=Young Siffert
TTITLE12=Hard Braking
TTITLE13=Le Mans Nightdrive
TTITLE14=Brands Hatch 6 A.M.
EXTD=
EXTT0=
EXTT1=
EXTT2=
EXTT3=
EXTT4=
EXTT5=
EXTT6=
EXTT7=
EXTT8=
EXTT9=
EXTT10=
EXTT11=
EXTT12=
EXTT13=
EXTT14=
PLAYORDER=
